<svg version="1.1" xmlns="http://www.w3.org/2000/svg" viewBox="0 0 2228.3891686820525 873.9702783335463" width="4456.778337364105" height="1747.9405566670926">
  <!-- svg-source:excalidraw -->
  
  <defs>
    <style class="style-fonts">
      @font-face {
        font-family: "Virgil";
        src: url("https://excalidraw.com/Virgil.woff2");
      }
      @font-face {
        font-family: "Cascadia";
        src: url("https://excalidraw.com/Cascadia.woff2");
      }
      @font-face {
        font-family: "Assistant";
        src: url("https://excalidraw.com/Assistant-Regular.woff2");
      }
    </style>
    
  </defs>
  <rect x="0" y="0" width="2228.3891686820525" height="873.9702783335463" fill="#ffffff"></rect><g stroke-linecap="round" transform="translate(10 10) rotate(0 297.0035100105347 426.98513916677314)"><path d="M32 0 C161.43 1.59, 293.38 0.59, 562.01 0 C585.01 -0.95, 596.76 8.97, 594.01 32 C595.61 340.77, 595.59 649.39, 594.01 821.97 C594.86 843.71, 580.98 854.85, 562.01 853.97 C411.7 858.61, 260.27 857.19, 32 853.97 C10.64 852.86, -0.22 841.25, 0 821.97 C-5.98 558.88, -3.37 297.88, 0 32 C1.7 7.73, 9.63 -3.4, 32 0" stroke="none" stroke-width="0" fill="#ffffff"></path><path d="M32 0 C227.28 1.31, 420.88 1.54, 562.01 0 M32 0 C140.68 1.58, 249.43 1.7, 562.01 0 M562.01 0 C582.44 -0.18, 593.11 10.11, 594.01 32 M562.01 0 C584.05 1.47, 595.73 10.17, 594.01 32 M594.01 32 C593.78 327.48, 592.93 621.99, 594.01 821.97 M594.01 32 C591.57 345.22, 591.77 658.8, 594.01 821.97 M594.01 821.97 C595.16 842.58, 582.15 853.92, 562.01 853.97 M594.01 821.97 C592.19 842.83, 583.49 853.71, 562.01 853.97 M562.01 853.97 C384.56 855.15, 206.91 856.65, 32 853.97 M562.01 853.97 C373.65 854.03, 185.23 853.64, 32 853.97 M32 853.97 C9.68 852.72, -1.14 841.81, 0 821.97 M32 853.97 C12.42 853.32, -0.33 843.53, 0 821.97 M0 821.97 C-1.85 526.19, -1.04 232, 0 32 M0 821.97 C-1.8 658.36, -1.7 494.9, 0 32 M0 32 C1.44 11.53, 11.15 1.88, 32 0 M0 32 C0.46 9.48, 11.44 1.86, 32 0" stroke="#1e1e1e" stroke-width="4" fill="none"></path></g><g transform="translate(115.88060014236021 87.77347727252618) rotate(0 194.71695019960657 328.39616071392845)"><text x="0" y="0" font-family="Virgil, Segoe UI Emoji" font-size="87.5723095237143px" fill="#1e1e1e" text-anchor="start" style="white-space: pre;" direction="ltr" dominant-baseline="text-before-edge">ALBUM</text><text x="0" y="109.46538690464287" font-family="Virgil, Segoe UI Emoji" font-size="87.5723095237143px" fill="#1e1e1e" text-anchor="start" style="white-space: pre;" direction="ltr" dominant-baseline="text-before-edge"></text><text x="0" y="218.93077380928574" font-family="Virgil, Segoe UI Emoji" font-size="87.5723095237143px" fill="#1e1e1e" text-anchor="start" style="white-space: pre;" direction="ltr" dominant-baseline="text-before-edge">- titre</text><text x="0" y="328.3961607139286" font-family="Virgil, Segoe UI Emoji" font-size="87.5723095237143px" fill="#1e1e1e" text-anchor="start" style="white-space: pre;" direction="ltr" dominant-baseline="text-before-edge">- image</text><text x="0" y="437.8615476185715" font-family="Virgil, Segoe UI Emoji" font-size="87.5723095237143px" fill="#1e1e1e" text-anchor="start" style="white-space: pre;" direction="ltr" dominant-baseline="text-before-edge">- genre</text><text x="0" y="547.3269345232144" font-family="Virgil, Segoe UI Emoji" font-size="87.5723095237143px" fill="#1e1e1e" text-anchor="start" style="white-space: pre;" direction="ltr" dominant-baseline="text-before-edge">- artiste</text></g><g stroke-linecap="round" transform="translate(1624.382148660983 159.51479023321036) rotate(0 297.0035100105347 276.3790337107335)"><path d="M32 0 C233.31 -1.28, 433.25 -3.3, 562.01 0 C581.56 -2.15, 592.78 8.86, 594.01 32 C593.68 203.6, 594.88 375.06, 594.01 520.76 C597.53 539.19, 582.19 551.07, 562.01 552.76 C420.38 552.49, 279.9 552.15, 32 552.76 C11.13 553.59, -2.37 538.8, 0 520.76 C0.7 358.4, 2.62 199.76, 0 32 C1.02 7.39, 13.81 -1.25, 32 0" stroke="none" stroke-width="0" fill="#ffffff"></path><path d="M32 0 C170.31 0.74, 306.81 0.89, 562.01 0 M32 0 C205.4 1.71, 379.16 1.76, 562.01 0 M562.01 0 C581.46 -0.64, 593.94 9, 594.01 32 M562.01 0 C581.1 0.49, 592.3 12.47, 594.01 32 M594.01 32 C592.51 166.5, 592.59 300.46, 594.01 520.76 M594.01 32 C595.51 189.7, 595.38 347.45, 594.01 520.76 M594.01 520.76 C595.84 540.55, 584.48 551.14, 562.01 552.76 M594.01 520.76 C592.76 543.33, 583.63 553.97, 562.01 552.76 M562.01 552.76 C374.69 553.61, 186.18 553.39, 32 552.76 M562.01 552.76 C372.48 551.15, 183.09 551.27, 32 552.76 M32 552.76 C8.93 552.85, -0.16 543.71, 0 520.76 M32 552.76 C9.22 551.35, 1.52 540.24, 0 520.76 M0 520.76 C1.64 384.49, 1.42 248.42, 0 32 M0 520.76 C-0.14 388.81, 0.31 257.74, 0 32 M0 32 C0.59 8.72, 11.1 -0.74, 32 0 M0 32 C2.16 12.25, 9.32 1.55, 32 0" stroke="#1e1e1e" stroke-width="4" fill="none"></path></g><g transform="translate(1730.796894650804 236.2015569884888) rotate(0 144.14019775390625 218.93077380928577)"><text x="0" y="0" font-family="Virgil, Segoe UI Emoji" font-size="87.5723095237143px" fill="#1e1e1e" text-anchor="start" style="white-space: pre;" direction="ltr" dominant-baseline="text-before-edge">PISTE</text><text x="0" y="109.46538690464287" font-family="Virgil, Segoe UI Emoji" font-size="87.5723095237143px" fill="#1e1e1e" text-anchor="start" style="white-space: pre;" direction="ltr" dominant-baseline="text-before-edge"></text><text x="0" y="218.93077380928574" font-family="Virgil, Segoe UI Emoji" font-size="87.5723095237143px" fill="#1e1e1e" text-anchor="start" style="white-space: pre;" direction="ltr" dominant-baseline="text-before-edge">- titre</text><text x="0" y="328.3961607139286" font-family="Virgil, Segoe UI Emoji" font-size="87.5723095237143px" fill="#1e1e1e" text-anchor="start" style="white-space: pre;" direction="ltr" dominant-baseline="text-before-edge">- URL</text></g><g stroke-linecap="round"><g transform="translate(628.9553148619543 454.91586270136264) rotate(0 484.96759184975986 0)"><path d="M-0.7 -1.02 C160.82 -1.17, 807.03 -0.97, 968.91 -0.65 M1.13 1.06 C163.04 1.03, 809.57 0.88, 971.09 0.55" stroke="#1e1e1e" stroke-width="4" fill="none"></path></g></g><mask></mask><g stroke-linecap="round" transform="translate(941.0530497688387 342.4597429885367) rotate(0 222.00206549810696 118.40539932419978)"><path d="M268.54 2.22 C288.48 2.53, 310.18 9.5, 328.5 14.77 C346.83 20.05, 363.8 25.94, 378.49 33.87 C393.19 41.81, 406.71 52.5, 416.65 62.38 C426.59 72.27, 433.7 82.34, 438.14 93.19 C442.58 104.04, 444.71 116.5, 443.29 127.49 C441.87 138.47, 436.87 148.87, 429.59 159.09 C422.32 169.32, 412.09 179.88, 399.64 188.84 C387.19 197.81, 371.61 206.19, 354.89 212.88 C338.17 219.58, 318.96 225.01, 299.32 229.02 C279.69 233.04, 257.98 236.05, 237.08 236.99 C216.18 237.94, 194.31 237.13, 173.91 234.69 C153.52 232.25, 132.87 227.69, 114.69 222.35 C96.52 217.01, 79.32 210.58, 64.85 202.64 C50.39 194.7, 37.88 184.46, 27.89 174.73 C17.89 165, 9.5 155.16, 4.88 144.26 C0.25 133.35, -1.54 120.63, 0.14 109.3 C1.82 97.97, 7.4 86.53, 14.94 76.29 C22.47 66.06, 33.14 56.79, 45.34 47.9 C57.55 39.02, 71.55 29.88, 88.18 22.97 C104.82 16.06, 125.35 10.05, 145.13 6.43 C164.91 2.82, 184.63 1.72, 206.86 1.28 C229.09 0.83, 265.37 2.87, 278.51 3.76 C291.66 4.65, 286.52 4.83, 285.72 6.59 M191.56 1.03 C210.63 -2.48, 233.44 -0.51, 254.39 1.28 C275.33 3.08, 298.18 7.11, 317.23 11.81 C336.28 16.51, 353.28 22.39, 368.68 29.5 C384.08 36.61, 398.44 44.89, 409.64 54.48 C420.85 64.07, 430.08 76.36, 435.9 87.06 C441.72 97.76, 444.81 107.71, 444.56 118.7 C444.31 129.69, 440.81 142, 434.4 153.02 C427.99 164.05, 417.6 175.48, 406.1 184.86 C394.61 194.23, 381.25 202.15, 365.43 209.26 C349.61 216.38, 330.39 223.22, 311.17 227.55 C291.95 231.88, 270.66 234.17, 250.1 235.25 C229.53 236.33, 208.06 235.63, 187.78 234.03 C167.49 232.42, 147.27 229.86, 128.38 225.61 C109.49 221.36, 90.4 215.97, 74.45 208.53 C58.49 201.08, 43.78 190.81, 32.66 180.91 C21.53 171.02, 13.28 159.56, 7.7 149.18 C2.13 138.8, -1.3 129.47, -0.81 118.63 C-0.31 107.8, 4.25 94.97, 10.67 84.15 C17.1 73.32, 26.63 63.22, 37.74 53.69 C48.86 44.16, 61.79 34.24, 77.34 26.96 C92.9 19.67, 111.69 14.51, 131.08 9.97 C150.48 5.44, 183.21 0.74, 193.71 -0.26 C204.21 -1.26, 194.03 1.54, 194.08 3.95" stroke="none" stroke-width="0" fill="#ffffff"></path><path d="M270.73 2.91 C290.7 3.56, 311.94 10.66, 330.15 15.96 C348.37 21.26, 365.27 26.79, 380.02 34.7 C394.78 42.62, 408.64 53.6, 418.67 63.45 C428.7 73.29, 436.2 82.87, 440.21 93.76 C444.21 104.64, 444.37 117.48, 442.68 128.78 C440.99 140.08, 437.48 151.12, 430.05 161.55 C422.63 171.98, 411.08 182.61, 398.13 191.37 C385.17 200.12, 369.12 207.57, 352.32 214.1 C335.52 220.63, 316.92 226.78, 297.32 230.54 C277.71 234.3, 255.52 236.11, 234.69 236.66 C213.87 237.21, 192.47 236.44, 172.38 233.83 C152.29 231.23, 132.36 226.52, 114.15 221.03 C95.94 215.55, 77.94 208.78, 63.09 200.92 C48.24 193.07, 34.87 183.71, 25.07 173.9 C15.27 164.09, 8.32 152.86, 4.3 142.08 C0.29 131.31, -0.81 120.48, 0.96 109.27 C2.74 98.07, 7.49 85.45, 14.93 74.86 C22.38 64.26, 33.12 54.5, 45.64 45.71 C58.15 36.93, 73.2 28.46, 90.03 22.13 C106.87 15.8, 127.03 11.52, 146.66 7.74 C166.3 3.96, 183.69 -0.33, 207.85 -0.55 C232 -0.76, 274.65 4.28, 291.6 6.46 C308.55 8.63, 310.91 10.81, 309.54 12.5 M298.53 5.63 C318.55 7.29, 337.34 15.13, 353.82 22.11 C370.29 29.09, 385.02 38.66, 397.38 47.51 C409.74 56.36, 420.18 64.93, 427.97 75.22 C435.76 85.51, 442.36 97.92, 444.1 109.24 C445.84 120.56, 442.6 132.16, 438.41 143.16 C434.22 154.15, 428.8 165.35, 418.96 175.2 C409.12 185.05, 393.89 194.31, 379.38 202.25 C364.87 210.2, 349.92 217.54, 331.92 222.89 C313.93 228.24, 292.06 232.24, 271.42 234.34 C250.79 236.44, 228.94 236.26, 208.12 235.49 C187.3 234.71, 166.02 233.49, 146.51 229.69 C127 225.89, 107.8 219.25, 91.05 212.69 C74.3 206.12, 58.65 199.05, 46.02 190.3 C33.39 181.55, 22.58 170.32, 15.27 160.18 C7.96 150.04, 4.11 140.6, 2.16 129.47 C0.2 118.34, -0.25 104.66, 3.52 93.4 C7.29 82.14, 15.01 71.6, 24.78 61.89 C34.54 52.19, 47.1 42.93, 62.11 35.16 C77.12 27.4, 96.22 20.68, 114.84 15.31 C133.45 9.95, 153.96 5.53, 173.81 2.98 C193.66 0.42, 213.28 -0.54, 233.94 -0.02 C254.6 0.5, 287.64 4.72, 297.79 6.1 C307.94 7.48, 296.11 6.43, 294.84 8.25" stroke="#1e1e1e" stroke-width="4" fill="none"></path></g><g transform="translate(1064.3459764764586 438.13988152149375) rotate(0 98.72997283935547 22.5)"><text x="98.72997283935547" y="0" font-family="Virgil, Segoe UI Emoji" font-size="36px" fill="#1e1e1e" text-anchor="middle" style="white-space: pre;" direction="ltr" dominant-baseline="text-before-edge">CONTIENT</text></g><g transform="translate(655.4876284228958 271.2401495396679) rotate(0 82.28158065095795 68.79731837923202)"><text x="0" y="0" font-family="Virgil, Segoe UI Emoji" font-size="110.07570940677128px" fill="#1e1e1e" text-anchor="start" style="white-space: pre;" direction="ltr" dominant-baseline="text-before-edge">1, n</text></g><g transform="translate(1480.5817014404015 269.39846724078126) rotate(0 43.97295379638672 68.79731837923205)"><text x="0" y="0" font-family="Virgil, Segoe UI Emoji" font-size="110.07570940677128px" fill="#1e1e1e" text-anchor="start" style="white-space: pre;" direction="ltr" dominant-baseline="text-before-edge">1,1</text></g></svg>